<svg width="90" height="90" viewBox="0 0 90 90" fill="none" xmlns="http://www.w3.org/2000/svg">
<path d="M83.5383 90C86.6162 90 88.1576 84.6143 85.9812 81.4645L30.7048 1.46447C30.0569 0.526784 29.1782 0 28.2619 0L5.4617 0C2.38383 0 0.842427 5.38572 3.01881 8.53554L58.2952 88.5355C58.9431 89.4732 59.8218 90 60.7381 90H83.5383Z" fill="#D9D9D9"/>
<path d="M83.5383 90C86.6162 90 88.1576 84.6143 85.9812 81.4645L30.7048 1.46447C30.0569 0.526784 29.1782 0 28.2619 0L5.4617 0C2.38383 0 0.842427 5.38572 3.01881 8.53554L58.2952 88.5355C58.9431 89.4732 59.8218 90 60.7381 90H83.5383Z" fill="url(#paint0_linear_303_198)"/>
<mask id="mask0_303_198" style="mask-type:alpha" maskUnits="userSpaceOnUse" x="-3" y="7" width="96" height="86">
<path d="M0.431454 89.6706C-2.61955 89.2648 -3.43733 83.7228 -0.86461 80.8875L64.4779 8.87475C65.2438 8.03069 66.1843 7.62438 67.0926 7.74519L89.6937 10.7516C92.7447 11.1575 93.5625 16.6994 90.9898 19.5348L25.6473 91.5475C24.8814 92.3915 23.9409 92.7979 23.0326 92.677L0.431454 89.6706Z" fill="#D9D9D9"/>
</mask>
<g mask="url(#mask0_303_198)">
<path d="M83.5382 90C86.6161 90 88.1575 84.6143 85.9811 81.4645L30.7047 1.46447C30.0568 0.526784 29.1781 0 28.2618 0L5.46158 0C2.3837 0 0.842304 5.38572 3.01869 8.53554L58.2951 88.5355C58.943 89.4732 59.8217 90 60.7379 90H83.5382Z" fill="#77003E"/>
</g>
<path d="M5.4617 90C2.38382 90 0.842421 84.6143 3.01881 81.4645L58.2952 1.46447C58.9431 0.526784 59.8218 0 60.7381 0L83.5383 0C86.6162 0 88.1576 5.38572 85.9812 8.53554L30.7048 88.5355C30.0569 89.4732 29.1782 90 28.2619 90H5.4617Z" fill="#D55D5D"/>
<path d="M5.4617 90C2.38382 90 0.842421 84.6143 3.01881 81.4645L58.2952 1.46447C58.9431 0.526784 59.8218 0 60.7381 0L83.5383 0C86.6162 0 88.1576 5.38572 85.9812 8.53554L30.7048 88.5355C30.0569 89.4732 29.1782 90 28.2619 90H5.4617Z" fill="url(#paint1_linear_303_198)"/>
<defs>
<linearGradient id="paint0_linear_303_198" x1="2.38482" y1="-0.407454" x2="92.238" y2="84.4539" gradientUnits="userSpaceOnUse">
<stop stop-color="#ED008E"/>
<stop offset="1" stop-color="#632390"/>
</linearGradient>
<linearGradient id="paint1_linear_303_198" x1="86.6152" y1="-0.407454" x2="-3.238" y2="84.4539" gradientUnits="userSpaceOnUse">
<stop stop-color="#F9AA40"/>
<stop offset="1" stop-color="#ED008E"/>
</linearGradient>
</defs>
</svg>
