<svg width="367" height="367" viewBox="0 0 367 367" fill="none" xmlns="http://www.w3.org/2000/svg">
<path d="M1.64661 38.0173C1.64661 17.9303 17.9303 1.64659 38.0173 1.64659H328.983C349.07 1.64659 365.353 17.9303 365.353 38.0173V328.983C365.353 349.07 349.07 365.353 328.983 365.353H38.0173C17.9303 365.353 1.64661 349.07 1.64661 328.983V38.0173Z" fill="url(#paint0_linear_303_171)"/>
<g filter="url(#filter0_d_303_171)">
<path d="M304.605 241.501V243.684V267.688C304.605 287.574 288.484 303.695 268.598 303.695H95.1094C75.2233 303.695 59.1024 287.574 59.1024 267.688V243.684V241.501V221.861C59.1024 212.822 66.4301 205.494 75.4692 205.494H86.3804C95.4196 205.494 102.747 212.822 102.747 221.861V243.684C102.747 252.723 110.075 260.05 119.114 260.05H244.593C253.632 260.05 260.96 252.723 260.96 243.684V221.861C260.96 212.822 268.287 205.494 277.327 205.494H288.238C297.277 205.494 304.605 212.822 304.605 221.861V241.501Z" fill="white"/>
<path d="M157.303 99.9876V107.625V126.174C157.303 146.061 141.182 162.181 121.296 162.181H95.1094C75.2233 162.181 59.1024 146.061 59.1024 126.174V107.625V99.9876V74.8918C59.1024 68.8657 63.9875 63.9806 70.0136 63.9806H91.836C92.228 63.9806 92.6151 64.0012 92.9964 64.0415C98.4769 64.6209 102.747 69.2576 102.747 74.8918V85.803V107.625V118.537C102.747 121.55 105.19 123.992 108.203 123.992C111.216 123.992 113.658 121.55 113.658 118.537V107.625V85.803V74.8918C113.658 69.2576 117.929 64.6209 123.409 64.0415C123.791 64.0012 124.178 63.9806 124.57 63.9806H146.392C152.418 63.9806 157.303 68.8657 157.303 74.8918V99.9876Z" fill="white"/>
<path d="M209.579 81.39C205.347 85.6222 205.347 92.4846 209.579 96.7168L225.611 112.749L209.578 128.781C205.346 133.014 205.346 139.876 209.578 144.108L224.145 158.675C228.378 162.908 235.24 162.908 239.472 158.675L255.505 142.642L271.538 158.675C275.77 162.907 282.632 162.907 286.864 158.675L301.431 144.108C305.664 139.875 305.664 133.013 301.431 128.781L285.399 112.749L301.43 96.7175C305.663 92.4849 305.663 85.6226 301.43 81.3903L286.863 66.8232C282.631 62.591 275.769 62.591 271.536 66.8232L255.505 82.8545L239.474 66.8229C235.241 62.5906 228.379 62.5906 224.146 66.8229L209.579 81.39Z" fill="white"/>
<path d="M228.226 200.039C228.226 194.013 233.111 189.127 239.137 189.127H320.971C326.997 189.127 331.882 194.013 331.882 200.039V221.861C331.882 227.887 326.997 232.772 320.971 232.772H239.137C233.111 232.772 228.226 227.887 228.226 221.861V200.039Z" fill="white"/>
</g>
<defs>
<filter id="filter0_d_303_171" x="31.1024" y="51.6487" width="312.78" height="280.956" filterUnits="userSpaceOnUse" color-interpolation-filters="sRGB">
<feFlood flood-opacity="0" result="BackgroundImageFix"/>
<feColorMatrix in="SourceAlpha" type="matrix" values="0 0 0 0 0 0 0 0 0 0 0 0 0 0 0 0 0 0 127 0" result="hardAlpha"/>
<feOffset dx="-8" dy="8"/>
<feGaussianBlur stdDeviation="10"/>
<feComposite in2="hardAlpha" operator="out"/>
<feColorMatrix type="matrix" values="0 0 0 0 0.537255 0 0 0 0 0 0 0 0 0 0.258824 0 0 0 1 0"/>
<feBlend mode="normal" in2="BackgroundImageFix" result="effect1_dropShadow_303_171"/>
<feBlend mode="normal" in="SourceGraphic" in2="effect1_dropShadow_303_171" result="shape"/>
</filter>
<linearGradient id="paint0_linear_303_171" x1="363.707" y1="-8.06647e-06" x2="7.19232e-06" y2="363.707" gradientUnits="userSpaceOnUse">
<stop stop-color="#F9AA40"/>
<stop offset="0.5" stop-color="#ED008E"/>
<stop offset="1" stop-color="#632390"/>
</linearGradient>
</defs>
</svg>
