<svg width="223" height="37" viewBox="0 0 223 37" fill="none" xmlns="http://www.w3.org/2000/svg">
<rect x="36.6665" width="36.668" height="36.668" rx="8" transform="rotate(89.4788 36.6665 0)" fill="url(#paint0_linear_303_122)"/>
<path d="M30.7094 24.3475V24.5675V26.9876C30.7094 28.9925 29.0841 30.6178 27.0793 30.6178H9.58863C7.58376 30.6178 5.9585 28.9925 5.9585 26.9876V24.5675V24.3475V22.3675C5.9585 21.4562 6.69725 20.7174 7.60856 20.7174H8.7086C9.6199 20.7174 10.3587 21.4562 10.3587 22.3675V24.5675C10.3587 25.4788 11.0974 26.2176 12.0087 26.2176H24.6592C25.5705 26.2176 26.3092 25.4788 26.3092 24.5675V22.3675C26.3092 21.4562 27.048 20.7174 27.9593 20.7174H29.0593C29.9706 20.7174 30.7094 21.4562 30.7094 22.3675V24.3475Z" fill="white"/>
<path d="M15.8589 10.0805V10.8505V12.7206C15.8589 14.7254 14.2336 16.3507 12.2287 16.3507H9.58863C7.58376 16.3507 5.9585 14.7254 5.9585 12.7206V10.8505V10.0805V7.55039C5.9585 6.94285 6.451 6.45035 7.05854 6.45035H9.25862C9.29813 6.45035 9.33716 6.45243 9.3756 6.45649C9.92813 6.5149 10.3587 6.98237 10.3587 7.55039V8.65043V10.8505V11.9505C10.3587 12.2543 10.6049 12.5006 10.9087 12.5006C11.2124 12.5006 11.4587 12.2543 11.4587 11.9505V10.8505V8.65043V7.55039C11.4587 6.98237 11.8892 6.5149 12.4418 6.45649C12.4802 6.45243 12.5192 6.45035 12.5587 6.45035H14.7588C15.3663 6.45035 15.8589 6.94285 15.8589 7.55039V10.0805Z" fill="white"/>
<path d="M21.1292 8.20553C20.7025 8.63222 20.7025 9.32406 21.1292 9.75075L22.7455 11.367L21.1291 12.9834C20.7024 13.4101 20.7024 14.102 21.1291 14.5286L22.5977 15.9972C23.0244 16.4239 23.7163 16.4239 24.143 15.9972L25.7593 14.3808L27.3757 15.9972C27.8024 16.4239 28.4942 16.4239 28.9209 15.9972L30.3895 14.5286C30.8163 14.1019 30.8163 13.4101 30.3895 12.9834L28.7732 11.367L30.3894 9.75081C30.8161 9.32409 30.8161 8.63225 30.3894 8.20557L28.9208 6.73695C28.4941 6.31026 27.8023 6.31026 27.3756 6.73695L25.7593 8.35319L24.1431 6.73691C23.7163 6.31023 23.0246 6.31023 22.5978 6.73691L21.1292 8.20553Z" fill="white"/>
<rect x="23.009" y="19.0674" width="10.4504" height="4.40016" rx="2.20008" fill="white"/>
<path d="M74.8344 22.5664C74.8344 24.3056 74.4532 25.866 73.6908 27.2478C72.9285 28.6295 71.773 29.7254 70.2245 30.5354C68.6759 31.3216 66.7701 31.7147 64.5068 31.7147C61.1 31.7147 58.5271 30.8928 56.788 29.249C55.0488 27.6051 54.1793 25.3776 54.1793 22.5664V6.12813H61.5408V22.352C61.5408 23.7576 61.7671 24.7939 62.2197 25.461C62.6962 26.1042 63.4586 26.4259 64.5068 26.4259C65.5551 26.4259 66.3055 26.1042 66.7581 25.461C67.2346 24.7939 67.4729 23.7576 67.4729 22.352V6.12813H74.8344V22.5664ZM90.7291 17.5992L97.6618 31H89.7285L86.2979 22.4592L83.0817 31H75.2914L81.9382 17.8136L75.7559 6.12813H83.6535L86.3694 13.2752L89.4069 6.12813H97.1615L90.7291 17.5992ZM107.755 1.62546L113.973 3.05488L105.504 35.181L99.25 33.7516L107.755 1.62546ZM137.72 22.5664C137.72 24.3056 137.339 25.866 136.577 27.2478C135.814 28.6295 134.659 29.7254 133.11 30.5354C131.562 31.3216 129.656 31.7147 127.393 31.7147C123.986 31.7147 121.413 30.8928 119.674 29.249C117.935 27.6051 117.065 25.3776 117.065 22.5664V6.12813H124.427V22.352C124.427 23.7576 124.653 24.7939 125.106 25.461C125.582 26.1042 126.345 26.4259 127.393 26.4259C128.441 26.4259 129.192 26.1042 129.644 25.461C130.121 24.7939 130.359 23.7576 130.359 22.352V6.12813H137.72V22.5664ZM147.782 6.12813V31H140.42V6.12813H147.782ZM171.75 31V20.9583H166.068V31H158.707V6.12813H166.068V15.3121H171.75V6.12813H179.112V31H171.75ZM199.382 31H193.2L192.949 28.9273C191.639 30.7856 189.757 31.7147 187.303 31.7147C185.517 31.7147 184.182 31.1787 183.301 30.1066C182.419 29.0346 181.979 27.5456 181.979 25.6397V11.9173H189.054V24.7106C189.054 25.4014 189.15 25.8898 189.34 26.1757C189.555 26.4378 189.852 26.5688 190.234 26.5688C190.567 26.5688 190.913 26.4378 191.27 26.1757C191.651 25.9137 191.997 25.5206 192.306 24.9964V11.9173H199.382V31ZM214.477 11.2026C216.788 11.2026 218.539 12.1079 219.73 13.9185C220.921 15.7052 221.517 18.2305 221.517 21.4944C221.517 23.4479 221.207 25.1989 220.588 26.7475C219.992 28.296 219.11 29.511 217.943 30.3925C216.8 31.274 215.442 31.7147 213.869 31.7147C212.845 31.7147 211.904 31.5003 211.046 31.0715C210.212 30.6665 209.51 30.0947 208.938 29.3562L208.688 31H202.398V4.41283L209.474 3.69812V13.5968C209.998 12.8821 210.713 12.3104 211.618 11.8815C212.523 11.4289 213.476 11.2026 214.477 11.2026ZM211.725 26.676C212.535 26.676 213.155 26.2829 213.583 25.4967C214.036 24.7106 214.262 23.3764 214.262 21.4944C214.262 19.4455 214.06 18.0638 213.655 17.3491C213.274 16.6344 212.714 16.277 211.975 16.277C210.998 16.277 210.165 16.8726 209.474 18.0638V25.2823C210.022 26.2115 210.772 26.676 211.725 26.676Z" fill="black"/>
<defs>
<linearGradient id="paint0_linear_303_122" x1="36.6665" y1="18.334" x2="73.3345" y2="18.334" gradientUnits="userSpaceOnUse">
<stop stop-color="#F9AA40"/>
<stop offset="0.5" stop-color="#ED008E"/>
<stop offset="1" stop-color="#632390"/>
</linearGradient>
</defs>
</svg>
